<svg xmlns="http://www.w3.org/2000/svg" viewBox="0 0 583.5 492.5"><defs><style>.cls-1{fill:#f28400;}</style></defs><title>alpha_orange</title><g id="Layer_2" data-name="Layer 2"><g id="Layer_1-2" data-name="Layer 1"><path class="cls-1" d="M197.5,0h17c3.89.34,7.81.53,11.68,1,51.36,6.61,91,32.34,117.49,76.24,17.08,28.27,30.87,58.51,45.42,86.51-1.08,2.1-.76,1.67-.62,1.18Q408,95.89,427.56,26.81c1.3-4.55,3.26-12.68,5.1-12.74,27.37-.82,54.78-.57,82.4-.57q-39.9,137.13-79.67,273.79c-16.55,56.85-38.13,110.81-83.59,151.92-23.78,21.51-49.71,39-81.19,46.2-15.91,3.66-32.39,4.81-48.61,7.09H210.5c-2.59-.17-5.19-.38-7.78-.49-30.74-1.34-60.75-6.59-88.19-20.92-64-33.45-91.92-92.17-107.75-158.44C2.76,295.86,2.17,278.24,0,261V236c.33-4,.74-7.93,1-11.9C3.44,184,12.43,145.51,32.48,110.33,58.83,64.11,95.22,28.53,146,10.43,162.34,4.61,180.29,3.35,197.5,0Zm15.16,35.91c-31.3.29-54.43,15.54-72.61,39.61-29.81,39.46-37.54,86-40.68,133.4-2.1,31.72-1.66,63.7-.61,95.51,1.1,33.19,6.89,65.8,23.87,95.05,20.08,34.61,48.9,57.59,90.31,58.73,38.15,1.06,64.18-21.12,84.51-50.56,28.62-41.43,44.69-88.61,58.68-136.34,6.12-20.85,17.75-40.72,9.73-64.85-16.14-48.54-31.56-97.16-70.59-133.31C272,51.59,245.53,36.44,212.66,35.91Z"/><path class="cls-1" d="M490.5,492.5c-52.11-10.26-65.23-52.87-77.3-95.25-1.87-6.57,5.61-15.79,8.76-23.79,4.43-11.27,8.85-22.55,13.14-33.46,5.4,17.11,9.85,34.88,16.6,51.73C463.4,421,481.28,433.14,507.48,432c20.88-.91,41.87-20.7,50.48-47.77,1.35-4.25,2.21-8.65,3.15-13,3.33-15.33,15.36-3.49,22.39-7.22v5.5c-1.33,9.08-2.28,18.23-4.07,27.22-8.68,43.77-21,84.87-72.93,95.78Z"/></g></g></svg>
