<svg xmlns="http://www.w3.org/2000/svg" width="768" height="242" viewBox="0 0 768 242">
  <defs>
    <style>
      .cls-1 {
        fill: #0a0a0a;
        fill-rule: evenodd;
      }
    </style>
  </defs>
  <path id="QSheets" class="cls-1" d="M90.121,233.527h-3.11c-6.428,0-8.709-4.032-8.709-12.959V205.88c35.045-8.064,53.708-52.7,53.708-102.526C132.01,48.059,108.992-.9,65.86-0.9S-0.291,48.059-.291,103.354c0,49.823,18.663,94.462,53.708,102.526v7.776c0,22.175,6.843,28.511,20.322,28.511H90.121v-8.64ZM89.292,103.354c0,75.166-4.562,97.918-23.432,97.918S42.427,178.52,42.427,103.354,46.989,5.436,65.86,5.436,89.292,28.187,89.292,103.354ZM240.454,10.332A84.732,84.732,0,0,0,198.981-.9c-32.557,0-52.256,27.071-52.256,63.359,0,73.726,82.532,55.871,82.532,103.678,0,22.463-16.59,35.135-31.313,35.135-26.335,0-28.824-12.672-42.51-73.151h-7.051V188.6c15.138,12.384,29.032,19.008,44.792,19.008,36.082,0,56.818-28.224,56.818-72.575,0-71.422-82.532-53.567-82.532-99.646,0-19.008,11.82-29.951,31.935-29.951S222.413,21.852,233.4,65.051h7.05V10.332Zm66.974,186.332h-6.221V110.842c0-26.5,5.806-44.927,15.138-44.927,6.013,0,8.5,7.488,8.5,19.872V196.664h-6.221V203h49.353v-6.336h-9.954V97.594c0-27.647-9.331-45.5-28.824-45.5-12.442,0-24.261,11.52-27.579,21.6h-0.415V3.708H258.075v6.336h9.953v186.62h-9.953V203h49.353v-6.336ZM475.6,120.634c0-40.9-14.516-68.543-45.621-68.543-30.483,0-51.427,36-51.427,79.486,0,38.592,17.211,76.031,55.159,76.031,29.032,0,39.608-24.768,41.681-62.207h-4.562c-1.866,26.5-9.124,55.871-31.52,55.871-21.566,0-23.017-31.1-23.017-80.638H475.6ZM416.29,114.3c0.207-37.728,1.659-55.871,13.064-55.871,10.161,0,10.575,14.688,10.575,55.871H416.29Zm171.488,6.336c0-40.9-14.515-68.543-45.62-68.543-30.483,0-51.427,36-51.427,79.486,0,38.592,17.211,76.031,55.159,76.031,29.032,0,39.607-24.768,41.681-62.207h-4.562c-1.866,26.5-9.124,55.871-31.52,55.871-21.566,0-23.018-31.1-23.018-80.638h59.307ZM528.471,114.3c0.208-37.728,1.659-55.871,13.064-55.871,10.161,0,10.576,14.688,10.576,55.871h-23.64Zm80.248-51.263V169.593c0,27.359,11.2,38.015,27.787,38.015,26.543,0,32.556-16.992,32.556-52.7v-9.5H664.5v6.336c0,27.071-3.732,44.927-14.1,44.927-6.843,0-8.5-6.048-8.5-20.447V63.035h22.6V56.7H641.9V18.684H608.719V56.7H596.691v6.336h12.028Zm71.33,131.037c12.649,9.5,29.031,13.536,40.021,13.536,34.008,0,47.695-26.784,47.695-52.7,0-56.159-66.565-41.471-66.565-76.895,0-9.216,6.014-19.584,18.456-19.584,18.87,0,24.884,19.3,31.105,46.367h8.294V63.611c-11.4-6.912-23.847-11.52-36.5-11.52-27.373,0-44.169,21.6-44.169,48.959,0,59.039,66.564,41.183,66.564,78.91,0,14.976-8.709,21.312-22.81,21.312-23.225,0-25.506-26.783-32.142-51.263h-9.953v44.063Z"/>
</svg>